<svg xmlns="http://www.w3.org/2000/svg" viewBox="0 0 36 36" role="img" aria-label="Eldr menu bar mark">
  <!-- A single-colour, transparent mark for macOS template rendering. -->
  <path fill="#000000" fill-rule="evenodd" d="M18.1 33C12.2 32.6 8.7 28 10.4 22.2C11.6 18.1 14.3 16.8 13 12.3C12.6 10.5 13.4 8.3 16.2 6.5C15.7 10.8 18.9 12.1 19.8 15.9C21.1 20.3 24.2 22.7 22.7 27.5C21.7 30.6 20.5 32.7 18.1 33ZM18.1 29.8C15.1 29.5 13.6 26.5 14.8 23.2C15.6 21.1 17.1 20.3 16.8 17.7C19.2 19.1 20.5 21.4 20.3 24C20.2 27.1 19.9 29 18.1 29.8Z"/>
</svg>
